
<svg viewBox="0, 0, 115, 100" ng-attr-width = "{{widthCell}}" ng-attr-height= "{{widthCell}}">
  <g>
    <g>
      <path d="M0.5,1.125 L49.875,1.125 C77.144,1.125 99.25,23.231 99.25,50.5 C99.25,77.769 77.144,99.875 49.875,99.875 L0.5,99.875 L0.5,1.125" ng-attr-fill="{{item.color}}"/>
      <path d="M0.5,1.125 L49.875,1.125 C77.144,1.125 99.25,23.231 99.25,50.5 C99.25,77.769 77.144,99.875 49.875,99.875 L0.5,99.875 L0.5,1.125" fill-opacity="0" stroke="#4C4C4C" stroke-width="2"/>
    </g>
    <g>
      <path d="M106.75,58.25 C102.47,58.25 99,54.78 99,50.5 C99,46.22 102.47,42.75 106.75,42.75 C111.03,42.75 114.5,46.22 114.5,50.5 C114.5,54.78 111.03,58.25 106.75,58.25 z" ng-attr-fill="{{item.color}}"/>
      <path d="M106.75,58.25 C102.47,58.25 99,54.78 99,50.5 C99,46.22 102.47,42.75 106.75,42.75 C111.03,42.75 114.5,46.22 114.5,50.5 C114.5,54.78 111.03,58.25 106.75,58.25 z" fill-opacity="0" stroke="#4C4C4C" stroke-width="2"/>
    </g>
  </g>
</svg>
