<svg viewBox="0, 0, 130, 100" ng-attr-width = "{{widthCell}}" ng-attr-height= "{{widthCell}}">
  <g id="Layer_1">
    <g>
      <path d="M0.5,100.5 C16.833,50.833 16.833,46.5 0.5,0.5 C37.167,0.5 93,17.25 115,50.25 C93,83.25 37.167,100.5 0.5,100.5" ng-attr-fill="{{item.color}}"/>
      <path d="M0.5,100.5 C16.833,50.833 16.833,46.5 0.5,0.5 C37.167,0.5 93,17.25 115,50.25 C93,83.25 37.167,100.5 0.5,100.5" fill-opacity="0" stroke="#4C4C4C" stroke-width="2" stroke-linecap="round"/>
    </g>
    <g>
      <path d="M122.75,57.5 C118.47,57.5 115,54.03 115,49.75 C115,45.47 118.47,42 122.75,42 C127.03,42 130.5,45.47 130.5,49.75 C130.5,54.03 127.03,57.5 122.75,57.5 z" ng-attr-fill="{{item.color}}"/>
      <path d="M122.75,57.5 C118.47,57.5 115,54.03 115,49.75 C115,45.47 118.47,42 122.75,42 C127.03,42 130.5,45.47 130.5,49.75 C130.5,54.03 127.03,57.5 122.75,57.5 z" fill-opacity="0" stroke="#4C4C4C" stroke-width="2"/>
    </g>
  </g>
</svg>
